<svg width="58" height="10" viewBox="0 0 58 10" fill="none" xmlns="http://www.w3.org/2000/svg">
<path fill="#1D4ED8" d="M2.68359 8.98828L0.533203 9C0.494141 9 0.474609 8.98047 0.474609 8.94141L0.498047 0.697266C0.498047 0.666016 0.513672 0.650391 0.544922 0.650391L2.78906 0.638672C3.23438 0.626953 3.63672 0.728516 3.99609 0.943359C4.35938 1.1582 4.64844 1.44922 4.86328 1.81641C5.08203 2.17969 5.19141 2.58203 5.19141 3.02344V6.46875C5.19141 6.92969 5.08008 7.35156 4.85742 7.73438C4.63086 8.11328 4.33008 8.41602 3.95508 8.64258C3.58008 8.86523 3.15625 8.98047 2.68359 8.98828ZM2.78906 2.07422L1.95117 2.08594L1.93945 7.52344H2.68359C2.98047 7.52344 3.23047 7.41992 3.43359 7.21289C3.63672 7.00586 3.73828 6.75781 3.73828 6.46875V3.01172C3.73828 2.75781 3.64453 2.53711 3.45703 2.34961C3.26953 2.1582 3.04688 2.06641 2.78906 2.07422Z" />
<path  fill="#000000" d="M7.55273 9H6.19336C6.1543 9 6.13477 8.98047 6.13477 8.94141L6.14648 0.697266C6.14648 0.666016 6.16211 0.650391 6.19336 0.650391H7.54102C7.57227 0.650391 7.58789 0.666016 7.58789 0.697266L7.59961 8.94141C7.59961 8.98047 7.58398 9 7.55273 9ZM10.8516 9.11719C10.418 9.11719 10.0273 9.00977 9.67969 8.79492C9.32812 8.58008 9.04492 8.29102 8.83008 7.92773C8.61914 7.56445 8.51367 7.1582 8.51367 6.70898V2.90625C8.51367 2.46875 8.62109 2.07031 8.83594 1.71094C9.04688 1.34766 9.33008 1.05859 9.68555 0.84375C10.041 0.625 10.4297 0.515625 10.8516 0.515625C11.293 0.515625 11.6914 0.621094 12.0469 0.832031C12.4023 1.04688 12.6836 1.33398 12.8906 1.69336C13.1016 2.05273 13.207 2.45703 13.207 2.90625V3.45703C13.207 3.48828 13.1875 3.50391 13.1484 3.50391H11.8008C11.7695 3.50391 11.7539 3.48828 11.7539 3.45703V3C11.7539 2.69531 11.668 2.44336 11.4961 2.24414C11.3242 2.04492 11.1094 1.94531 10.8516 1.94531C10.6211 1.94531 10.416 2.04102 10.2363 2.23242C10.0566 2.42383 9.9668 2.64844 9.9668 2.90625V6.70898C9.9668 6.9707 10.0547 7.19727 10.2305 7.38867C10.4062 7.57617 10.6133 7.66992 10.8516 7.66992C11.1094 7.66992 11.3242 7.57812 11.4961 7.39453C11.668 7.20703 11.7539 6.97852 11.7539 6.70898V6.11719H10.916C10.873 6.11719 10.8516 6.09766 10.8516 6.05859V4.7168C10.8516 4.67773 10.873 4.6582 10.916 4.6582H13.1602C13.1914 4.6582 13.207 4.67773 13.207 4.7168V6.70898C13.207 7.1582 13.1016 7.56445 12.8906 7.92773C12.6758 8.29102 12.3926 8.58008 12.041 8.79492C11.6895 9.00977 11.293 9.11719 10.8516 9.11719ZM15.4746 9H14.1152C14.0762 9 14.0566 8.98047 14.0566 8.94141L14.0684 0.697266C14.0684 0.666016 14.084 0.650391 14.1152 0.650391H15.4629C15.4941 0.650391 15.5098 0.666016 15.5098 0.697266L15.5215 8.94141C15.5215 8.98047 15.5059 9 15.4746 9ZM19.1367 9H17.7832C17.748 9 17.7305 8.98047 17.7305 8.94141V2.09766H16.1719C16.1328 2.09766 16.1133 2.07812 16.1133 2.03906L16.125 0.697266C16.125 0.666016 16.1406 0.650391 16.1719 0.650391H20.7305C20.7734 0.650391 20.7949 0.666016 20.7949 0.697266V2.03906C20.7949 2.07812 20.7793 2.09766 20.748 2.09766H19.1719L19.1836 8.94141C19.1836 8.98047 19.168 9 19.1367 9ZM20.25 8.94141L21.7383 0.697266C21.7461 0.666016 21.7656 0.650391 21.7969 0.650391H23.5371C23.5684 0.650391 23.5879 0.666016 23.5957 0.697266L25.0254 8.94141C25.0293 8.98047 25.0137 9 24.9785 9H23.6484C23.6094 9 23.5879 8.98047 23.584 8.94141L23.4551 8.0625H21.8203L21.6914 8.94141C21.6875 8.98047 21.668 9 21.6328 9H20.2969C20.2656 9 20.25 8.98047 20.25 8.94141ZM22.5996 3.41016L22.0605 6.7793H23.2148L22.7227 3.41016L22.6523 2.96484L22.5996 3.41016ZM29.7012 9H25.8223C25.791 9 25.7754 8.98047 25.7754 8.94141L25.7871 0.708984C25.7871 0.669922 25.8066 0.650391 25.8457 0.650391H27.1816C27.2207 0.650391 27.2402 0.669922 27.2402 0.708984L27.2285 7.52344H29.7012C29.7402 7.52344 29.7598 7.54297 29.7598 7.58203V8.94141C29.7598 8.98047 29.7402 9 29.7012 9ZM31.9629 9H30.6035C30.5645 9 30.5449 8.98047 30.5449 8.94141L30.5566 0.697266C30.5566 0.666016 30.5723 0.650391 30.6035 0.650391H31.9512C31.9824 0.650391 31.998 0.666016 31.998 0.697266L32.0098 8.94141C32.0098 8.98047 31.9941 9 31.9629 9ZM32.6602 8.94141L34.1484 0.697266C34.1562 0.666016 34.1758 0.650391 34.207 0.650391H35.9473C35.9785 0.650391 35.998 0.666016 36.0059 0.697266L37.4355 8.94141C37.4395 8.98047 37.4238 9 37.3887 9H36.0586C36.0195 9 35.998 8.98047 35.9941 8.94141L35.8652 8.0625H34.2305L34.1016 8.94141C34.0977 8.98047 34.0781 9 34.043 9H32.707C32.6758 9 32.6602 8.98047 32.6602 8.94141ZM35.0098 3.41016L34.4707 6.7793H35.625L35.1328 3.41016L35.0625 2.96484L35.0098 3.41016ZM40.0195 9H38.666C38.6309 9 38.6133 8.98047 38.6133 8.94141V2.09766H37.0547C37.0156 2.09766 36.9961 2.07812 36.9961 2.03906L37.0078 0.697266C37.0078 0.666016 37.0234 0.650391 37.0547 0.650391H41.6133C41.6562 0.650391 41.6777 0.666016 41.6777 0.697266V2.03906C41.6777 2.07812 41.6621 2.09766 41.6309 2.09766H40.0547L40.0664 8.94141C40.0664 8.98047 40.0508 9 40.0195 9ZM46.1895 9H42.3105C42.2793 9 42.2637 8.98047 42.2637 8.94141L42.2754 0.697266C42.2754 0.666016 42.291 0.650391 42.3223 0.650391H46.1777C46.209 0.650391 46.2246 0.669922 46.2246 0.708984V2.05078C46.2246 2.08203 46.209 2.09766 46.1777 2.09766H43.7168V3.97266H46.1777C46.209 3.97266 46.2246 3.98828 46.2246 4.01953L46.2363 5.37891C46.2363 5.41016 46.2207 5.42578 46.1895 5.42578H43.7168V7.52344H46.1895C46.2207 7.52344 46.2363 7.54297 46.2363 7.58203V8.95312C46.2363 8.98438 46.2207 9 46.1895 9ZM49.5117 9.11719C49.0781 9.11719 48.6816 9.00781 48.3223 8.78906C47.9668 8.57031 47.6836 8.27734 47.4727 7.91016C47.2656 7.53906 47.1621 7.12695 47.1621 6.67383L47.1738 2.92969C47.1738 2.48438 47.2754 2.08203 47.4785 1.72266C47.6816 1.35938 47.9609 1.06836 48.3164 0.849609C48.6758 0.626953 49.0742 0.515625 49.5117 0.515625C49.957 0.515625 50.3535 0.623047 50.7012 0.837891C51.0527 1.05273 51.332 1.34375 51.5391 1.71094C51.75 2.07422 51.8555 2.48047 51.8555 2.92969V3.48047C51.8555 3.51172 51.8398 3.52734 51.8086 3.52734H50.4609C50.4297 3.52734 50.4141 3.51172 50.4141 3.48047V2.92969C50.4141 2.66406 50.3281 2.43555 50.1562 2.24414C49.9844 2.05273 49.7695 1.95703 49.5117 1.95703C49.2266 1.95703 49.0078 2.05469 48.8555 2.25C48.7031 2.44531 48.627 2.67188 48.627 2.92969V6.67383C48.627 6.9668 48.7129 7.20703 48.8848 7.39453C49.0566 7.57812 49.2656 7.66992 49.5117 7.66992C49.7695 7.66992 49.9844 7.56836 50.1562 7.36523C50.3281 7.1582 50.4141 6.92773 50.4141 6.67383V6.11719C50.4141 6.08594 50.4297 6.07031 50.4609 6.07031H51.8203C51.8516 6.07031 51.8672 6.08594 51.8672 6.11719V6.67383C51.8672 7.12305 51.7617 7.5332 51.5508 7.9043C51.3359 8.27148 51.0527 8.56641 50.7012 8.78906C50.3496 9.00781 49.9531 9.11719 49.5117 9.11719ZM54.1465 9H52.7871C52.7559 9 52.7402 8.98047 52.7402 8.94141L52.752 0.697266C52.752 0.666016 52.7715 0.650391 52.8105 0.650391H54.1465C54.1855 0.650391 54.2051 0.666016 54.2051 0.697266L54.1934 3.96094H55.9922V0.697266C55.9922 0.666016 56.0078 0.650391 56.0391 0.650391H57.375C57.4141 0.650391 57.4336 0.666016 57.4336 0.697266L57.457 8.94141C57.457 8.98047 57.4375 9 57.3984 9H56.0508C56.0117 9 55.9922 8.98047 55.9922 8.94141V5.41406H54.1934V8.94141C54.1934 8.98047 54.1777 9 54.1465 9Z"/>
</svg>
